<svg xmlns="http://www.w3.org/2000/svg" width="512" height="512" viewBox="0 0 512 512">
<rect width="512" height="512" rx="92" fill="#1D1D20"/>
<rect x="49" y="49" width="414" height="414" rx="51" fill="none" stroke="#F0A93C" stroke-width="26"/>
<g transform="translate(90.0,173.0)" shape-rendering="crispEdges">
<g fill="#F0A93C">
<rect x="0" y="0" width="13.8333" height="27.6667"/>
<rect x="0" y="27.6667" width="13.8333" height="27.6667"/>
<rect x="0" y="55.3333" width="13.8333" height="27.6667"/>
<rect x="0" y="83" width="13.8333" height="27.6667"/>
<rect x="0" y="110.667" width="13.8333" height="27.6667"/>
<rect x="13.8333" y="0" width="13.8333" height="27.6667"/>
<rect x="13.8333" y="27.6667" width="13.8333" height="27.6667"/>
<rect x="13.8333" y="55.3333" width="13.8333" height="27.6667"/>
<rect x="13.8333" y="83" width="13.8333" height="27.6667"/>
<rect x="13.8333" y="110.667" width="13.8333" height="27.6667"/>
<rect x="27.6667" y="0" width="13.8333" height="27.6667"/>
<rect x="27.6667" y="55.3333" width="13.8333" height="27.6667"/>
<rect x="27.6667" y="110.667" width="13.8333" height="27.6667"/>
<rect x="41.5" y="0" width="13.8333" height="27.6667"/>
<rect x="41.5" y="55.3333" width="13.8333" height="27.6667"/>
<rect x="41.5" y="110.667" width="13.8333" height="27.6667"/>
<rect x="55.3333" y="0" width="13.8333" height="27.6667"/>
<rect x="55.3333" y="55.3333" width="13.8333" height="27.6667"/>
<rect x="55.3333" y="110.667" width="13.8333" height="27.6667"/>
<rect x="69.1667" y="0" width="13.8333" height="27.6667"/>
<rect x="69.1667" y="27.6667" width="13.8333" height="27.6667"/>
<rect x="69.1667" y="55.3333" width="13.8333" height="27.6667"/>
<rect x="69.1667" y="83" width="13.8333" height="27.6667"/>
<rect x="69.1667" y="110.667" width="13.8333" height="27.6667"/>
<rect x="83" y="27.6667" width="13.8333" height="27.6667"/>
<rect x="83" y="83" width="13.8333" height="27.6667"/>
<rect x="110.667" y="0" width="13.8333" height="27.6667"/>
<rect x="110.667" y="27.6667" width="13.8333" height="27.6667"/>
<rect x="110.667" y="55.3333" width="13.8333" height="27.6667"/>
<rect x="110.667" y="83" width="13.8333" height="27.6667"/>
<rect x="110.667" y="110.667" width="13.8333" height="27.6667"/>
<rect x="124.5" y="0" width="13.8333" height="27.6667"/>
<rect x="124.5" y="27.6667" width="13.8333" height="27.6667"/>
<rect x="124.5" y="55.3333" width="13.8333" height="27.6667"/>
<rect x="124.5" y="83" width="13.8333" height="27.6667"/>
<rect x="124.5" y="110.667" width="13.8333" height="27.6667"/>
<rect x="138.333" y="0" width="13.8333" height="27.6667"/>
<rect x="138.333" y="55.3333" width="13.8333" height="27.6667"/>
<rect x="138.333" y="110.667" width="13.8333" height="27.6667"/>
<rect x="152.167" y="0" width="13.8333" height="27.6667"/>
<rect x="152.167" y="55.3333" width="13.8333" height="27.6667"/>
<rect x="152.167" y="110.667" width="13.8333" height="27.6667"/>
<rect x="166" y="0" width="13.8333" height="27.6667"/>
<rect x="166" y="55.3333" width="13.8333" height="27.6667"/>
<rect x="166" y="110.667" width="13.8333" height="27.6667"/>
<rect x="179.833" y="0" width="13.8333" height="27.6667"/>
<rect x="179.833" y="27.6667" width="13.8333" height="27.6667"/>
<rect x="179.833" y="55.3333" width="13.8333" height="27.6667"/>
<rect x="179.833" y="83" width="13.8333" height="27.6667"/>
<rect x="179.833" y="110.667" width="13.8333" height="27.6667"/>
<rect x="193.667" y="27.6667" width="13.8333" height="27.6667"/>
<rect x="193.667" y="83" width="13.8333" height="27.6667"/>
<rect x="221.333" y="0" width="13.8333" height="27.6667"/>
<rect x="221.333" y="27.6667" width="13.8333" height="27.6667"/>
<rect x="221.333" y="55.3333" width="13.8333" height="27.6667"/>
<rect x="221.333" y="110.667" width="13.8333" height="27.6667"/>
<rect x="235.167" y="0" width="13.8333" height="27.6667"/>
<rect x="235.167" y="27.6667" width="13.8333" height="27.6667"/>
<rect x="235.167" y="55.3333" width="13.8333" height="27.6667"/>
<rect x="235.167" y="110.667" width="13.8333" height="27.6667"/>
<rect x="249" y="0" width="13.8333" height="27.6667"/>
<rect x="249" y="55.3333" width="13.8333" height="27.6667"/>
<rect x="249" y="110.667" width="13.8333" height="27.6667"/>
<rect x="262.833" y="0" width="13.8333" height="27.6667"/>
<rect x="262.833" y="55.3333" width="13.8333" height="27.6667"/>
<rect x="262.833" y="110.667" width="13.8333" height="27.6667"/>
<rect x="276.667" y="0" width="13.8333" height="27.6667"/>
<rect x="276.667" y="55.3333" width="13.8333" height="27.6667"/>
<rect x="276.667" y="110.667" width="13.8333" height="27.6667"/>
<rect x="290.5" y="0" width="13.8333" height="27.6667"/>
<rect x="290.5" y="55.3333" width="13.8333" height="27.6667"/>
<rect x="290.5" y="83" width="13.8333" height="27.6667"/>
<rect x="290.5" y="110.667" width="13.8333" height="27.6667"/>
<rect x="304.333" y="0" width="13.8333" height="27.6667"/>
<rect x="304.333" y="55.3333" width="13.8333" height="27.6667"/>
<rect x="304.333" y="83" width="13.8333" height="27.6667"/>
<rect x="304.333" y="110.667" width="13.8333" height="27.6667"/>
</g>
<g stroke="#F0A93C" stroke-width="4.70333" fill="none">
<path d="M89.9167 27.6667L89.9167 13.8333"/>
<path d="M83 13.8333L89.9167 13.8333"/>
<path d="M200.583 27.6667L200.583 13.8333"/>
<path d="M193.667 13.8333L200.583 13.8333"/>
<path d="M325.083 27.6667L325.083 13.8333"/>
<path d="M318.167 13.8333L325.083 13.8333"/>
<path d="M34.5833 55.3333L34.5833 41.5"/>
<path d="M34.5833 41.5L41.5 41.5"/>
<path d="M41.5 41.5L55.3333 41.5"/>
<path d="M55.3333 41.5L69.1667 41.5"/>
<path d="M103.75 55.3333L103.75 41.5"/>
<path d="M96.8333 41.5L103.75 41.5"/>
<path d="M145.25 55.3333L145.25 41.5"/>
<path d="M145.25 41.5L152.167 41.5"/>
<path d="M152.167 41.5L166 41.5"/>
<path d="M166 41.5L179.833 41.5"/>
<path d="M214.417 55.3333L214.417 41.5"/>
<path d="M207.5 41.5L214.417 41.5"/>
<path d="M255.917 55.3333L255.917 41.5"/>
<path d="M255.917 41.5L262.833 41.5"/>
<path d="M262.833 41.5L276.667 41.5"/>
<path d="M276.667 41.5L290.5 41.5"/>
<path d="M290.5 41.5L304.333 41.5"/>
<path d="M304.333 41.5L318.167 41.5"/>
<path d="M325.083 27.6667L325.083 41.5"/>
<path d="M318.167 41.5L325.083 41.5"/>
<path d="M89.9167 83L89.9167 69.1667"/>
<path d="M89.9167 69.1667L96.8333 69.1667"/>
<path d="M103.75 55.3333L103.75 69.1667"/>
<path d="M96.8333 69.1667L103.75 69.1667"/>
<path d="M200.583 83L200.583 69.1667"/>
<path d="M200.583 69.1667L207.5 69.1667"/>
<path d="M214.417 55.3333L214.417 69.1667"/>
<path d="M207.5 69.1667L214.417 69.1667"/>
<path d="M325.083 83L325.083 69.1667"/>
<path d="M318.167 69.1667L325.083 69.1667"/>
<path d="M34.5833 110.667L34.5833 96.8333"/>
<path d="M34.5833 96.8333L41.5 96.8333"/>
<path d="M41.5 96.8333L55.3333 96.8333"/>
<path d="M55.3333 96.8333L69.1667 96.8333"/>
<path d="M103.75 110.667L103.75 96.8333"/>
<path d="M96.8333 96.8333L103.75 96.8333"/>
<path d="M145.25 110.667L145.25 96.8333"/>
<path d="M145.25 96.8333L152.167 96.8333"/>
<path d="M152.167 96.8333L166 96.8333"/>
<path d="M166 96.8333L179.833 96.8333"/>
<path d="M214.417 110.667L214.417 96.8333"/>
<path d="M207.5 96.8333L214.417 96.8333"/>
<path d="M228.25 83L228.25 96.8333"/>
<path d="M228.25 96.8333L235.167 96.8333"/>
<path d="M235.167 96.8333L249 96.8333"/>
<path d="M249 96.8333L262.833 96.8333"/>
<path d="M262.833 96.8333L276.667 96.8333"/>
<path d="M276.667 96.8333L290.5 96.8333"/>
<path d="M325.083 83L325.083 110.667"/>
<path d="M89.9167 138.333L89.9167 124.5"/>
<path d="M89.9167 124.5L96.8333 124.5"/>
<path d="M103.75 110.667L103.75 124.5"/>
<path d="M96.8333 124.5L103.75 124.5"/>
<path d="M200.583 138.333L200.583 124.5"/>
<path d="M200.583 124.5L207.5 124.5"/>
<path d="M214.417 110.667L214.417 124.5"/>
<path d="M207.5 124.5L214.417 124.5"/>
<path d="M325.083 110.667L325.083 138.333"/>
<path d="M6.91667 138.333L6.91667 152.167"/>
<path d="M6.91667 152.167L13.8333 152.167"/>
<path d="M13.8333 152.167L27.6667 152.167"/>
<path d="M27.6667 152.167L41.5 152.167"/>
<path d="M41.5 152.167L55.3333 152.167"/>
<path d="M55.3333 152.167L69.1667 152.167"/>
<path d="M69.1667 152.167L83 152.167"/>
<path d="M89.9167 138.333L89.9167 152.167"/>
<path d="M83 152.167L89.9167 152.167"/>
<path d="M117.583 138.333L117.583 152.167"/>
<path d="M117.583 152.167L124.5 152.167"/>
<path d="M124.5 152.167L138.333 152.167"/>
<path d="M138.333 152.167L152.167 152.167"/>
<path d="M152.167 152.167L166 152.167"/>
<path d="M166 152.167L179.833 152.167"/>
<path d="M179.833 152.167L193.667 152.167"/>
<path d="M200.583 138.333L200.583 152.167"/>
<path d="M193.667 152.167L200.583 152.167"/>
<path d="M228.25 138.333L228.25 152.167"/>
<path d="M228.25 152.167L235.167 152.167"/>
<path d="M235.167 152.167L249 152.167"/>
<path d="M249 152.167L262.833 152.167"/>
<path d="M262.833 152.167L276.667 152.167"/>
<path d="M276.667 152.167L290.5 152.167"/>
<path d="M290.5 152.167L304.333 152.167"/>
<path d="M304.333 152.167L318.167 152.167"/>
<path d="M325.083 138.333L325.083 152.167"/>
<path d="M318.167 152.167L325.083 152.167"/>
</g></g>
</svg>
